<?xml version="1.0" standalone="no"?><!DOCTYPE svg PUBLIC "-//W3C//DTD SVG 1.1//EN" "http://www.w3.org/Graphics/SVG/1.1/DTD/svg11.dtd"><svg class="icon" width="200px" height="200.00px" viewBox="0 0 1024 1024" version="1.1" xmlns="http://www.w3.org/2000/svg"><path d="M718.4896 513.28h-69.2224v128.3584c0 27.1872-22.016 49.2032-49.2032 49.2032s-49.2032-22.016-49.2032-49.2032v-128.3584H368.5376l137.4208 425.5744c10.496 32.512 55.9616 33.8944 68.4544 2.0992l144.0768-367.5648v-60.1088z" fill="#FFC31A" /><path d="M649.2672 641.6384a49.18784 49.18784 0 0 1-64.256 46.848L501.248 924.3648l4.6592 14.4896c10.496 32.512 55.9616 33.8944 68.4544 2.0992l144.0768-367.5648v-60.0576H649.216v128.3072z" fill="#F48806" /><path d="M677.4272 165.2224s0.0512 0 0 0c-16.64-47.616-61.952-81.8176-115.3024-81.8176-61.1328 0-111.7696 44.9024-120.7296 103.5776-6.7072-1.1264-13.568-1.792-20.6336-1.792-67.4304 0-122.112 54.6816-122.112 122.112 0 30.2592 11.008 57.9072 29.2352 79.2064 0.4608 0 0.8704-0.0512 1.3312-0.0512h428.1856c22.3232-23.6032 36.0448-55.3984 36.0448-90.4704-0.0512-67.4304-50.688-122.9824-116.0192-130.7648z m6.8608 40.2944z" fill="#FFC31A" /><path d="M760.6272 382.8736c20.3776-23.1936 32.8192-53.6064 32.8192-86.8864 0-67.4304-50.6368-122.9824-115.968-130.7648-16.64-47.6672-61.952-81.8176-115.3024-81.8176-6.8096 0-13.4144 0.6144-19.9168 1.6896 32.0512 9.472 84.9408 35.9424 98.0992 109.1072 52.0192 7.3728 96.9728 70.5536 51.6096 174.848 12.9024 5.888 57.1904 12.4928 68.6592 13.824z m-76.3392-177.3568z" fill="#F48806" /><path d="M513.1776 332.288c-78.6432 0-142.592-63.9488-142.592-142.592 0-78.6432 63.9488-142.592 142.592-142.592s142.592 63.9488 142.592 142.592c0 78.6432-64 142.592-142.592 142.592z m0-244.224c-56.064 0-101.632 45.6192-101.632 101.632s45.6192 101.632 101.632 101.632c56.064 0 101.632-45.6192 101.632-101.632s-45.6192-101.632-101.632-101.632z" fill="#293E40" /><path d="M513.1776 332.288c-78.6432 0-142.592-63.9488-142.592-142.592 0-78.6432 63.9488-142.592 142.592-142.592s142.592 63.9488 142.592 142.592c0 78.6432-64 142.592-142.592 142.592z m0-244.224c-56.064 0-101.632 45.6192-101.632 101.632s45.6192 101.632 101.632 101.632c56.064 0 101.632-45.6192 101.632-101.632s-45.6192-101.632-101.632-101.632z" fill="#293E40" /><path d="M786.8416 381.3376H339.0464c-36.4544 0-65.9456 29.5424-65.9456 65.9456 0 36.4544 29.5424 65.9456 65.9456 65.9456h211.8144v128.3584c0 27.1872 22.016 49.2032 49.2032 49.2032s49.2032-22.016 49.2032-49.2032v-128.3584h69.2224v67.072c0 22.272 18.0736 40.3456 40.3456 40.3456s40.3456-18.0736 40.3456-40.3456V512c30.5664-5.7856 53.6576-32.5632 53.6576-64.768-0.0512-36.352-29.5424-65.8944-65.9968-65.8944z" fill="#FFE8D2" /><path d="M786.8416 381.3376h-5.6832c7.936 15.2064 18.6368 40.1408 18.6368 63.3344 0 36.7616-48.64 38.4512-48.64 38.4512v94.976c0 7.2704-10.9568 22.1696-31.3344 12.544 4.5568 17.3056 20.224 30.0544 38.9632 30.0544 22.272 0 40.3456-18.0736 40.3456-40.3456v-68.3008c30.5664-5.7856 53.6576-32.5632 53.6576-64.768 0-36.4032-29.4912-65.9456-65.9456-65.9456zM649.2672 641.6384v-128.3584l-64.2048 175.1552c4.7616 1.536 9.7792 2.3552 15.0528 2.3552 27.136 0.0512 49.152-21.9648 49.152-49.152z" fill="#E8AD80" /><path d="M728.0128 350.1568h-201.728c-4.5568-5.5808-8.448-11.6224-11.8272-17.8688 78.0288-0.7168 141.312-64.3584 141.312-142.592 0-4.1472-0.2048-8.2432-0.5632-12.288 11.776 4.864 22.6816 11.7248 32.3584 20.48a111.45216 111.45216 0 0 1 34.8672 100.8128 20.54656 20.54656 0 0 0 20.224 23.9104c9.8304 0 18.4832-7.0656 20.1728-17.1008a152.39168 152.39168 0 0 0-47.6672-137.8816c-20.48-18.6368-45.2096-31.1296-72.0384-36.5568-22.4256-49.4592-72.192-83.968-129.9456-83.968-64.512 0-119.1424 43.0592-136.6528 101.9904-1.536-0.0512-3.1232-0.2048-4.6592-0.2048-78.6432 0-142.592 63.9488-142.592 142.592 0 23.1424 5.7856 45.7216 16.384 65.9968-30.464 13.3632-51.8144 43.776-51.8144 79.1552 0 47.6672 38.7584 86.4256 86.4256 86.4256h14.5408l17.5616 54.4256a20.54144 20.54144 0 0 0 25.8048 13.2096c10.752-3.4816 16.6912-15.0016 13.2096-25.8048l-13.5168-41.8304H471.552v7.4752c0 11.3152 9.1648 20.48 20.48 20.48s20.48-9.1648 20.48-20.48v-27.9552c0-11.3152-9.1648-20.48-20.48-20.48H280.2176c-25.088 0-45.4656-20.3776-45.4656-45.4656 0-24.6272 19.712-44.7488 44.2368-45.4144h0.4096c0.4096 0 0.8704-0.0512 1.3312-0.0512H728.064c25.088 0 45.4656 20.3776 45.4656 45.4656 0 21.8112-15.5648 40.6016-37.0176 44.6464a20.51072 20.51072 0 0 0-16.6912 20.1216v68.3008c0 10.9568-8.9088 19.8656-19.8656 19.8656-10.9568 0-19.8656-8.9088-19.8656-19.8656V502.528c0-11.3152-9.1648-20.48-20.48-20.48h-69.1712c-11.3152 0-20.48 9.1648-20.48 20.48v128.3584c0 15.8208-12.9024 28.7232-28.7232 28.7232s-28.7232-12.9024-28.7232-28.7232v-25.856c0-11.3152-9.1648-20.48-20.48-20.48s-20.48 9.1648-20.48 20.48v25.856c0 38.4 31.232 69.6832 69.6832 69.6832 2.4576 0 4.9152-0.1536 7.2704-0.4096 0.8192-0.1024 1.5872-0.256 2.4064-0.3584 1.5872-0.2048 3.1232-0.4096 4.6592-0.768 0.9216-0.2048 1.8432-0.4608 2.7648-0.7168 1.3312-0.3584 2.7136-0.6656 4.0448-1.0752 0.9728-0.3072 1.8944-0.7168 2.8672-1.024 1.2288-0.4608 2.4576-0.9216 3.6864-1.4336 0.9728-0.4096 1.8432-0.8704 2.816-1.3312 1.1264-0.5632 2.304-1.1264 3.4304-1.7408 0.9216-0.512 1.792-1.0752 2.6624-1.6384a45.952 45.952 0 0 0 5.6832-3.9424c0.9728-0.768 1.9968-1.536 2.9184-2.304 0.8192-0.6656 1.536-1.3824 2.304-2.0992 0.9216-0.8704 1.792-1.6896 2.6624-2.6112 0.3072-0.3072 0.6144-0.5632 0.9216-0.8704l-95.8464 244.48c-3.7888 9.6256-12.544 10.1888-15.2576 10.0864-2.6112-0.1024-11.4176-1.1264-14.6432-11.0592l-93.2352-285.1328a20.49024 20.49024 0 0 0-25.8048-13.1072c-10.752 3.5328-16.64 15.104-13.1072 25.8048l93.184 285.0816c7.4752 23.1424 28.0064 38.6048 52.3264 39.3216 0.6144 0 1.2288 0.0512 1.8432 0.0512 23.552 0 44.1856-14.0288 52.8384-36.096l126.0544-321.6896c10.5984 9.0112 24.32 14.4384 39.2704 14.4384 33.536 0 60.8256-27.2896 60.8256-60.8256v-53.0944c31.8976-13.056 53.7088-44.3904 53.7088-79.9744-0.0512-47.616-38.8096-86.3744-86.4768-86.3744zM513.1776 88.064c56.064 0 101.632 45.6192 101.632 101.632s-45.6192 101.632-101.632 101.632c-56.064 0-101.632-45.6192-101.632-101.632s45.568-101.632 101.632-101.632zM288.8192 350.1568a101.8368 101.8368 0 0 1-18.688-58.6752c0-55.6032 44.9536-100.9152 100.4032-101.5808 0.1024 62.6688 40.8064 115.968 97.1776 134.9632-3.1232 8.96-7.424 17.4592-13.0048 25.2928h-165.888z m322.0992 172.8512h28.2112v35.7376l-28.2112 72.0384v-107.776z" fill="#293E40" /><path d="M481.792 190.6688c-1.1776 0-2.304-0.1024-3.4816-0.3072a20.43904 20.43904 0 0 1-16.6912-23.6544c5.8368-33.8944 32.4096-47.872 35.4304-49.3568 10.1376-5.0176 22.4256-0.8192 27.4432 9.3184 4.9664 10.0352 0.9216 22.1696-9.0112 27.2896-0.8704 0.4608-11.1616 6.4512-13.4656 19.7632-1.7408 9.9328-10.4448 16.9472-20.224 16.9472z" fill="#FFFFFF" /><path d="M347.5456 320.5632c-10.24 0-19.0976-7.68-20.3264-18.1248-2.4064-20.6336 5.1712-36.7616 12.3392-44.2368l29.5936 28.3648s0.3072-0.256 0.7168-0.8192c-0.1024 0.1536-2.8672 3.9936-1.9456 11.9808 1.28 11.2128-6.7584 21.4016-17.9712 22.6816-0.8192 0.1024-1.6384 0.1536-2.4064 0.1536z" fill="#FFFFFF" /></svg>