<svg xml:space="preserve" style="enable-background:new 0 0 1024 1024;" viewBox="0 0 1024 1024" y="0px" x="0px" xmlns:xlink="http://www.w3.org/1999/xlink" xmlns="http://www.w3.org/2000/svg" id="图层_1" version="1.1">
<style type="text/css">
	.st0{fill:#FAD7B9;}
	.st1{fill:#472712;}
	.st2{fill:#FFFFFF;}
	.st3{fill:#F9B492;}
</style>
<polygon points="247.11,195.78 141.48,195.78 141.48,248.6 88.67,248.6 88.67,301.41 194.3,301.41 194.3,407.04 
	141.48,407.04 141.48,723.19 194.3,723.19 194.3,776 299.93,776 299.93,828.82 722.44,828.82 722.44,776 828.07,776 828.07,723.19 
	880.89,723.19 880.89,407.12 828.07,407.12 828.07,301.49 933.7,301.49 933.7,248.6 880.89,248.6 880.89,195.78 775.26,195.78 
	775.26,248.6 669.63,248.6 669.63,195.78 352.74,195.78 352.74,248.6 247.11,248.6" class="st0"></polygon>
<rect height="52.81" width="52.81" class="st1" y="195.78" x="88.67"></rect>
<rect height="52.81" width="52.81" class="st1" y="195.78" x="35.85"></rect>
<rect height="52.81" width="52.81" class="st1" y="248.6" x="35.85"></rect>
<rect height="52.81" width="52.81" class="st1" y="301.41" x="88.67"></rect>
<rect height="52.81" width="52.81" class="st1" y="301.41" x="141.48"></rect>
<rect height="52.81" width="52.81" class="st1" y="407.04" x="88.67"></rect>
<rect height="52.81" width="52.81" class="st1" y="354.23" x="141.48"></rect>
<rect height="52.81" width="52.81" class="st1" y="459.86" x="88.67"></rect>
<rect height="52.81" width="52.81" class="st1" y="512.67" x="88.67"></rect>
<rect height="52.81" width="52.81" class="st1" y="565.49" x="88.67"></rect>
<rect height="52.81" width="52.81" class="st1" y="617.56" x="88.67"></rect>
<rect height="52.81" width="52.81" class="st1" y="670.37" x="141.48"></rect>
<rect height="52.81" width="52.81" class="st1" y="459.86" x="880.89"></rect>
<rect height="52.81" width="52.81" class="st1" y="407.12" x="880.89"></rect>
<rect height="52.81" width="52.81" class="st1" y="354.3" x="828.07"></rect>
<rect height="52.81" width="52.81" class="st1" y="301.49" x="880.89"></rect>
<rect height="52.81" width="52.81" class="st1" y="301.49" x="828.07"></rect>
<rect height="52.81" width="52.81" class="st1" y="248.67" x="933.7"></rect>
<rect height="52.81" width="52.81" class="st1" y="195.78" x="933.7"></rect>
<rect height="52.81" width="52.81" class="st1" y="195.78" x="880.89"></rect>
<rect height="52.81" width="52.81" class="st1" y="142.97" x="828.07"></rect>
<rect height="52.81" width="52.81" class="st1" y="142.97" x="775.26"></rect>
<rect height="52.81" width="52.81" class="st1" y="195.78" x="722.44"></rect>
<rect height="52.81" width="52.81" class="st1" y="195.78" x="669.63"></rect>
<rect height="52.81" width="52.81" class="st1" y="512.67" x="880.89"></rect>
<rect height="52.81" width="52.81" class="st1" y="565.49" x="880.89"></rect>
<rect height="52.81" width="52.81" class="st1" y="617.56" x="880.89"></rect>
<rect height="52.81" width="52.81" class="st1" y="670.37" x="828.07"></rect>
<rect height="52.81" width="52.81" class="st1" y="723.19" x="141.48"></rect>
<rect height="52.81" width="52.81" class="st1" y="776" x="194.3"></rect>
<rect height="52.81" width="52.81" class="st1" y="776" x="247.11"></rect>
<rect height="52.81" width="52.81" class="st1" y="828.82" x="299.93"></rect>
<rect height="52.81" width="52.81" class="st1" y="828.82" x="352.74"></rect>
<rect height="52.81" width="52.81" class="st1" y="828.82" x="405.56"></rect>
<rect height="52.81" width="52.81" class="st1" y="828.82" x="458.37"></rect>
<rect height="52.81" width="52.81" class="st1" y="828.82" x="511.19"></rect>
<rect height="52.81" width="52.81" class="st1" y="828.82" x="564"></rect>
<rect height="52.81" width="52.81" class="st1" y="828.82" x="616.81"></rect>
<rect height="52.81" width="52.81" class="st1" y="828.82" x="669.63"></rect>
<rect height="52.81" width="52.81" class="st1" y="776" x="722.44"></rect>
<rect height="52.81" width="52.81" class="st1" y="776" x="775.26"></rect>
<rect height="52.81" width="52.81" class="st1" y="723.19" x="828.07"></rect>
<rect height="52.81" width="52.81" class="st1" y="142.97" x="141.48"></rect>
<rect height="52.81" width="52.81" class="st1" y="142.97" x="194.3"></rect>
<rect height="52.81" width="52.81" class="st1" y="195.78" x="247.11"></rect>
<rect height="52.81" width="52.81" class="st1" y="195.78" x="299.93"></rect>
<rect height="52.81" width="52.81" class="st1" y="354.57" x="299.93"></rect>
<rect height="52.81" width="52.81" class="st2" y="354.57" x="352.74"></rect>
<rect height="52.81" width="52.81" class="st1" y="407.12" x="299.93"></rect>
<rect height="52.81" width="52.81" class="st1" y="407.12" x="352.74"></rect>
<rect height="52.81" width="52.81" class="st1" y="459.93" x="405.56"></rect>
<rect height="52.81" width="52.81" class="st1" y="459.93" x="458.39"></rect>
<rect height="52.81" width="52.81" class="st1" y="459.93" x="511.21"></rect>
<rect height="52.81" width="52.81" class="st1" y="459.93" x="564.02"></rect>
<rect height="52.81" width="52.81" class="st1" y="618.34" x="405.56"></rect>
<rect height="52.81" width="52.81" class="st1" y="618.34" x="458.39"></rect>
<rect height="52.81" width="52.81" class="st1" y="618.34" x="511.21"></rect>
<rect height="52.81" width="52.81" class="st1" y="618.34" x="564.02"></rect>
<rect height="52.81" width="52.81" class="st3" y="512.73" x="405.56"></rect>
<rect height="52.81" width="52.81" class="st3" y="512.73" x="458.39"></rect>
<rect height="52.81" width="52.81" class="st3" y="512.73" x="511.21"></rect>
<rect height="52.81" width="52.81" class="st3" y="512.73" x="564.02"></rect>
<rect height="52.81" width="52.81" class="st3" y="565.53" x="405.56"></rect>
<rect height="52.81" width="52.81" class="st1" y="512.73" x="352.74"></rect>
<rect height="52.81" width="52.81" class="st1" y="565.53" x="352.74"></rect>
<rect height="52.81" width="52.81" class="st1" y="512.73" x="616.84"></rect>
<rect height="52.81" width="52.81" class="st1" y="565.53" x="616.84"></rect>
<rect height="52.81" width="52.81" class="st3" y="565.53" x="458.39"></rect>
<rect height="52.81" width="52.81" class="st3" y="565.53" x="511.21"></rect>
<rect height="52.81" width="52.81" class="st3" y="565.53" x="564.02"></rect>
<rect height="52.81" width="52.81" class="st1" y="354.57" x="616.81"></rect>
<rect height="52.81" width="52.81" class="st2" y="354.57" x="669.63"></rect>
<rect height="52.81" width="52.81" class="st1" y="407.12" x="616.81"></rect>
<rect height="52.81" width="52.81" class="st1" y="407.12" x="669.63"></rect>
<rect height="52.81" width="52.81" class="st1" y="142.97" x="352.74"></rect>
<rect height="52.81" width="52.81" class="st1" y="142.97" x="405.56"></rect>
<rect height="52.81" width="52.81" class="st1" y="142.97" x="458.37"></rect>
<rect height="52.81" width="52.81" class="st1" y="142.97" x="511.19"></rect>
<rect height="52.81" width="52.81" class="st1" y="142.97" x="564"></rect>
<rect height="52.81" width="52.81" class="st1" y="142.97" x="616.81"></rect>
<rect height="52.81" width="52.81" class="st1" y="539.14" x="431.96"></rect>
<rect height="52.81" width="52.81" class="st1" y="539.14" x="537.61"></rect>
</svg>
