<svg xml:space="preserve" style="enable-background:new 0 0 1024 1024;" viewBox="0 0 1024 1024" y="0px" x="0px" xmlns:xlink="http://www.w3.org/1999/xlink" xmlns="http://www.w3.org/2000/svg" id="图层_1" version="1.1">
<style type="text/css">
	.st0{fill:#FEF3DB;}
	.st1{fill:#472712;}
	.st2{fill:#FFFFFF;}
	.st3{fill:#FCAE9F;}
	.st4{fill:#F2CCBC;}
</style>
<polygon points="374.66,101.71 238.13,101.71 238.13,238.24 283.66,238.24 283.66,329.26 329.29,329.26 329.29,420.28 
	283.64,420.28 283.64,465.79 238.13,465.79 238.13,556.66 192.62,556.66 192.62,784.21 238.13,784.21 238.13,829.72 283.64,829.72 
	283.64,875.23 374.66,875.23 374.66,920.74 647.72,920.74 647.72,875.23 738.74,875.23 738.74,829.72 784.25,829.72 784.25,784.21 
	829.76,784.21 829.76,556.66 784.25,556.66 784.25,465.64 738.74,465.64 738.74,420.13 693.23,420.13 693.23,329.26 738.74,329.26 
	738.74,238.24 784.25,238.24 784.25,101.71 647.72,101.71 647.72,192.73 602.21,192.73 602.21,329.26 556.7,329.26 556.7,374.77 
	465.68,374.77 465.68,329.26 420.17,329.26 420.17,192.73 374.8,192.73" class="st0"></polygon>
<rect height="45.51" width="45.51" class="st1" y="56.2" x="283.64"></rect>
<rect height="45.51" width="45.51" class="st1" y="56.2" x="238.13"></rect>
<rect height="45.51" width="45.51" class="st1" y="101.71" x="192.62"></rect>
<rect height="45.51" width="45.51" class="st1" y="147.22" x="192.62"></rect>
<rect height="45.51" width="45.51" class="st1" y="192.73" x="192.62"></rect>
<rect height="45.51" width="45.51" class="st1" y="238.24" x="192.62"></rect>
<rect height="45.51" width="45.51" class="st1" y="101.71" x="784.25"></rect>
<rect height="45.51" width="45.51" class="st1" y="147.22" x="784.25"></rect>
<rect height="45.51" width="45.51" class="st1" y="192.73" x="784.25"></rect>
<rect height="45.51" width="45.51" class="st1" y="238.24" x="784.25"></rect>
<rect height="45.51" width="45.51" class="st1" y="238.24" x="238.13"></rect>
<rect height="45.51" width="45.51" class="st1" y="283.75" x="238.13"></rect>
<rect height="45.51" width="45.51" class="st1" y="238.09" x="738.74"></rect>
<rect height="45.51" width="45.51" class="st1" y="283.6" x="738.74"></rect>
<rect height="45.51" width="45.51" class="st1" y="329.26" x="283.66"></rect>
<rect height="45.51" width="45.51" class="st1" y="374.77" x="283.66"></rect>
<rect height="45.51" width="45.51" class="st1" y="420.28" x="238.13"></rect>
<rect height="45.51" width="45.51" class="st1" y="465.79" x="192.62"></rect>
<rect height="45.51" width="45.51" class="st1" y="511.15" x="192.62"></rect>
<rect height="45.51" width="45.51" class="st1" y="569.61" x="329.73"></rect>
<rect height="45.51" width="45.51" class="st2" y="569.61" x="375.24"></rect>
<rect height="45.51" width="45.51" class="st1" y="615.12" x="329.73"></rect>
<rect height="45.51" width="45.51" class="st1" y="615.12" x="375.24"></rect>
<rect height="45.51" width="45.51" class="st1" y="569.61" x="612.65"></rect>
<rect height="45.51" width="45.51" class="st2" y="569.61" x="658.16"></rect>
<rect height="45.51" width="45.51" class="st1" y="615.12" x="612.65"></rect>
<rect height="45.51" width="45.51" class="st1" y="615.12" x="658.16"></rect>
<rect height="45.51" width="45.51" class="st1" y="556.66" x="147.11"></rect>
<rect height="45.51" width="45.51" class="st1" y="602.17" x="147.11"></rect>
<rect height="45.51" width="45.51" class="st1" y="647.68" x="147.11"></rect>
<rect height="45.51" width="45.51" class="st1" y="693.19" x="147.11"></rect>
<rect height="45.51" width="45.51" class="st1" y="738.7" x="147.11"></rect>
<rect height="45.51" width="45.51" class="st1" y="784.21" x="192.62"></rect>
<rect height="45.51" width="45.51" class="st1" y="829.72" x="238.13"></rect>
<rect height="45.51" width="45.51" class="st1" y="875.23" x="283.64"></rect>
<rect height="45.51" width="45.51" class="st1" y="875.23" x="329.15"></rect>
<rect height="45.51" width="45.51" class="st1" y="920.74" x="374.66"></rect>
<rect height="45.51" width="45.51" class="st1" y="920.74" x="420.17"></rect>
<rect height="45.51" width="45.51" class="st1" y="920.74" x="465.68"></rect>
<rect height="45.51" width="45.51" class="st1" y="920.74" x="511.19"></rect>
<rect height="45.51" width="45.51" class="st1" y="920.74" x="556.7"></rect>
<rect height="45.51" width="45.51" class="st1" y="920.74" x="602.21"></rect>
<rect height="45.51" width="45.51" class="st1" y="875.23" x="647.72"></rect>
<rect height="45.51" width="45.51" class="st1" y="875.23" x="693.23"></rect>
<rect height="45.51" width="45.51" class="st1" y="829.72" x="738.74"></rect>
<rect height="45.51" width="45.51" class="st1" y="784.21" x="784.25"></rect>
<rect height="45.51" width="45.51" class="st1" y="738.7" x="829.76"></rect>
<rect height="45.51" width="45.51" class="st1" y="693.19" x="829.76"></rect>
<rect height="45.51" width="45.51" class="st1" y="647.68" x="829.76"></rect>
<rect height="45.51" width="45.51" class="st1" y="602.17" x="829.76"></rect>
<rect height="45.51" width="45.51" class="st1" y="556.66" x="829.76"></rect>
<rect height="45.51" width="45.51" class="st1" y="511.15" x="784.25"></rect>
<rect height="45.51" width="45.51" class="st1" y="465.64" x="784.25"></rect>
<rect height="45.51" width="45.51" class="st1" y="420.13" x="738.74"></rect>
<rect height="45.51" width="45.51" class="st1" y="329.11" x="693.23"></rect>
<rect height="45.51" width="45.51" class="st1" y="374.62" x="693.23"></rect>
<rect height="45.51" width="45.51" class="st1" y="56.2" x="329.15"></rect>
<rect height="45.51" width="45.51" class="st1" y="56.2" x="693.23"></rect>
<rect height="45.51" width="45.51" class="st1" y="56.2" x="647.72"></rect>
<rect height="45.51" width="45.51" class="st1" y="56.2" x="738.74"></rect>
<rect height="45.51" width="45.51" class="st1" y="101.71" x="374.66"></rect>
<rect height="45.51" width="45.51" class="st1" y="147.22" x="374.66"></rect>
<rect height="45.51" width="45.51" class="st3" y="192.73" x="283.66"></rect>
<rect height="45.51" width="45.51" class="st3" y="192.73" x="329.29"></rect>
<rect height="45.51" width="45.51" class="st3" y="238.24" x="329.29"></rect>
<rect height="45.51" width="45.51" class="st3" y="283.75" x="329.29"></rect>
<rect height="45.51" width="45.51" class="st4" y="329.26" x="329.29"></rect>
<rect height="45.51" width="45.51" class="st3" y="283.75" x="374.66"></rect>
<rect height="45.51" width="45.51" class="st3" y="329.26" x="374.66"></rect>
<rect height="45.51" width="45.51" class="st4" y="238.24" x="283.66"></rect>
<rect height="45.51" width="45.51" class="st3" transform="matrix(-1 -4.490509e-11 4.490509e-11 -1 1431.9768 430.9641)" y="192.73" x="693.23"></rect>
<rect height="45.51" width="45.51" class="st3" transform="matrix(-1 -4.490509e-11 4.490509e-11 -1 1340.7229 430.9641)" y="192.73" x="647.61"></rect>
<rect height="45.51" width="45.51" class="st3" transform="matrix(-1 -4.488511e-11 4.488511e-11 -1 1340.7229 521.9845)" y="238.24" x="647.61"></rect>
<rect height="45.51" width="45.51" class="st3" transform="matrix(-1 -4.492507e-11 4.492507e-11 -1 1340.7229 613.0049)" y="283.75" x="647.61"></rect>
<rect height="45.51" width="45.51" class="st4" transform="matrix(-1 -4.488511e-11 4.488511e-11 -1 1340.7229 704.0254)" y="329.26" x="647.61"></rect>
<rect height="45.51" width="45.51" class="st3" transform="matrix(-1 -4.492507e-11 4.492507e-11 -1 1249.9792 613.0049)" y="283.75" x="602.23"></rect>
<rect height="45.51" width="45.51" class="st3" transform="matrix(-1 -4.490509e-11 4.490509e-11 -1 1249.9792 704.0254)" y="329.26" x="602.23"></rect>
<rect height="45.51" width="45.51" class="st4" transform="matrix(-1 -4.490509e-11 4.490509e-11 -1 1431.9768 521.9845)" y="238.24" x="693.23"></rect>
<rect height="45.51" width="45.51" class="st1" y="101.71" x="602.21"></rect>
<rect height="45.51" width="45.51" class="st1" y="147.22" x="602.21"></rect>
<rect height="45.51" width="45.51" class="st1" y="192.73" x="420.17"></rect>
<rect height="45.51" width="45.51" class="st1" y="238.24" x="420.17"></rect>
<rect height="45.51" width="45.51" class="st1" y="283.75" x="420.17"></rect>
<rect height="45.51" width="45.51" class="st1" y="192.73" x="556.7"></rect>
<rect height="45.51" width="45.51" class="st1" y="238.24" x="556.7"></rect>
<rect height="45.51" width="45.51" class="st1" y="283.75" x="556.7"></rect>
<rect height="45.51" width="45.51" class="st1" y="329.26" x="465.68"></rect>
<rect height="45.51" width="45.51" class="st1" y="329.26" x="511.19"></rect>
<rect height="45.51" width="45.51" class="st1" y="659.95" x="465.68"></rect>
<rect height="45.51" width="45.51" class="st1" y="659.95" x="511.19"></rect>
<rect height="45.51" width="45.51" class="st1" y="704.98" x="489.38"></rect>
<rect height="45.51" width="45.51" class="st1" y="750.49" x="443.87"></rect>
<rect height="45.51" width="45.51" class="st1" y="750.49" x="534.89"></rect>
<rect height="45.51" width="45.51" class="st1" y="704.98" x="580.4"></rect>
<rect height="45.51" width="45.51" class="st1" y="704.98" x="397.99"></rect>
</svg>
